<?xml version="1.0" standalone="yes"?>
<svg xmlns="http://www.w3.org/2000/svg" width="245" height="226">
<path style="fill:#fdfefd; stroke:none;" d="M0 0L0 226L245 226L245 0L0 0z"/>
<path style="fill:#a8b69d; stroke:none;" d="M114 33L114 34L132 34L114 33M107 34L107 35L111 35L107 34z"/>
<path style="fill:#578d31; stroke:none;" d="M111 34.4282C98.2131 36.2593 85.9774 40.5742 75 47.4252C65.1876 53.5491 56.6505 61.5019 50.0394 71C6.12121 134.096 59.56 221.523 136 210.572C148.49 208.782 160.26 204.598 171 197.934C180.222 192.213 189.213 183.812 195.572 174.999C240.426 112.839 187.479 23.4767 111 34.4282z"/>
<path style="fill:#a8b69d; stroke:none;" d="M135 34L135 35L139 35L135 34M102 35L102 36L105 36L102 35M112 35L112 36L119 36L112 35z"/>
<path style="fill:#fdfefd; stroke:none;" d="M57 66C65.7661 59.9295 73.4503 60.6958 84 62L81 59C85.0318 54.0168 89.3452 56.8832 95 56L94 64C95.893 62.1599 97.0466 61.011 95 59L100 56L100 55L96 51L101 51L98 48L104 49C109.856 38.1132 135.67 43.5565 146 44C147.122 54.1376 157.38 59.8139 145 67C147.189 79.7196 154.058 95.976 139.985 105.272C131.311 111.002 126.951 102.35 119.019 102.099C113.871 101.936 107.335 119.556 107 124L91 119C88.4311 124.472 90.3 127.578 95 131L100 129L99 135L109 143C110.535 139.414 112.023 134.548 114.585 131.594C130.281 113.495 150.045 128.794 167 135C165.219 129.446 158.472 127.293 155.558 121.999C146.647 105.809 154.597 90.4161 169 82L169 77C172.227 80.6909 174.787 85.0779 180 85C177.892 77.2943 164.287 56.5753 182 63C177.267 49.8491 163.539 44.1432 151 40.0008C119.406 29.5628 77.1343 37.417 57 66z"/>
<path style="fill:#a8b69d; stroke:none;" d="M127 35L127 36L134 36L127 35M142.667 35.3333L143.333 35.6667L142.667 35.3333M99 36L100 37L99 36M106 36L106 37L110 37L106 36M137 36L137 37L141 37L137 36M146.667 36.3333L147.333 36.6667L146.667 36.3333M95.6667 37.3333L96.3333 37.6667L95.6667 37.3333M101 37L101 38L105 38L101 37M142 37L142 38L145 38L142 37M149.667 37.3333L150.333 37.6667L149.667 37.3333M92.6667 38.3333L93.3333 38.6667L92.6667 38.3333M98.6667 38.3333L99.3333 38.6667L98.6667 38.3333M146 38L146 39L149 39L146 38M152.667 38.3333L153.333 38.6667L152.667 38.3333M89 39L89 40L92 40L89 39M95.6667 39.3333L96.3333 39.6667L95.6667 39.3333M149 39L149 40L152 40L149 39M155.667 39.3333L156.333 39.6667L155.667 39.3333M87.6667 40.3333L88.3333 40.6667L87.6667 40.3333M92.6667 40.3333L93.3333 40.6667L92.6667 40.3333M152.667 40.3333L153.333 40.6667L152.667 40.3333M157.667 40.3333L158.333 40.6667L157.667 40.3333M85.6667 41.3333L86.3333 41.6667L85.6667 41.3333M89.6667 41.3333L90.3333 41.6667L89.6667 41.3333M155.667 41.3333L156.333 41.6667L155.667 41.3333M160 41L161 42L160 41M83 42L84 43L83 42M87 42L88 43L87 42M129 43L129 44L133 43L129 43M158 42L159 43L158 42M162 42L163 43L162 42M81 43L82 44L81 43M85 43L86 44L85 43M111.667 43.3333L112.333 43.6667L111.667 43.3333z"/>
<path style="fill:#578d31; stroke:none;" d="M104 48L106 47L106 48L105 51L99 48L102 51L97 52L97 53L101 56L96 57L96 58L99 59L99 58L97 58L97 57L100 60L93 64L94 57L84 55L82 57L85 63C79.9267 61.6718 67.5769 58.97 63.0046 61.6466C58.0758 64.532 54.9522 70.9301 51 75L51 76L54 80L56 80L63 77L64 79L63 81L65 81L64 83L66 83C66.0344 92.4558 63.2231 110.452 73 116L72 119L89 123L90 118C80.3672 112.622 72.324 103.234 70.0833 92.1736C66.3033 73.514 82.0275 68.6791 96 76L96 73L109 71L109 70L105 66L110 61L112 61L113 65L114 65C114.806 61.6373 116.188 58.4742 112 58C109.629 55.2946 107.029 56.92 104 58L106 64C102.544 61.3443 101.519 59.3521 102 55L104 54C110.919 55.8206 114.907 49.8798 120 46L120 51L117 49C123.27 58.2206 143.833 51.6016 144 69L145 69L148 63L153 62C151.121 54.1642 145.764 44.0875 137 43.1296C132.847 42.6757 129.053 44.5235 125 44.277C117.341 43.8111 109.977 41.5267 104 48z"/>
<path style="fill:#a8b69d; stroke:none;" d="M121.667 43.3333L122.333 43.6667L121.667 43.3333M140 43L141 44L140 43M160 43L161 44L160 43M164 43L165 44L164 43M79 44L80 45L79 44M83 44L84 45L83 44M108 44L109 45L108 44z"/>
<path style="fill:#486b2d; stroke:none;" d="M114 44L115 45L114 44M119 44L120 45L119 44z"/>
<path style="fill:#a8b69d; stroke:none;" d="M124 44L124 45L128 45L124 44z"/>
<path style="fill:#486b2d; stroke:none;" d="M138 44L139 45L138 44z"/>
<path style="fill:#a8b69d; stroke:none;" d="M141 44L141 45L145 47C146.095 44.0949 143.45 44.1205 141 44M162 44L163 45L162 44M166 44L167 45L166 44M78 45L79 46L78 45M81 45L82 46L81 45M105 45L106 46L105 45z"/>
<path style="fill:#486b2d; stroke:none;" d="M110 45L111 46L110 45M122 45L123 46L122 45z"/>
<path style="fill:#a8b69d; stroke:none;" d="M164 45L165 46L164 45M168 45L169 46L168 45M76 46L77 47L76 46M79 46L80 47L79 46M104 46L105 47L104 46z"/>
<path style="fill:#486b2d; stroke:none;" d="M106.667 46.3333L107.333 46.6667L106.667 46.3333z"/>
<path style="fill:#a8b69d; stroke:none;" d="M119 46L101 57L101 58L104 57L104 61L105 61L104 58L118 51L119 46M166 46L167 47L166 46M169 46L170 47L169 46M74 47L75 48L74 47M78 47L79 48L78 47z"/>
<path style="fill:#486b2d; stroke:none;" d="M105.333 47.6667L105.667 48.3333L105.333 47.6667M115 47L113 50L115 47z"/>
<path style="fill:#fdfefd; stroke:none;" d="M118 47L119 48L118 47z"/>
<path style="fill:#a8b69d; stroke:none;" d="M161 47L166 54L167 54L161 47M168 47L169 48L168 47M171 47L172 48L171 47M73 48L74 49L73 48M76 48L77 49L76 48M98.3333 48.6667L98.6667 49.3333L98.3333 48.6667M100 48L100 49L103 49L100 48M104 48L105 51L104 48M146 48L148 51L146 48M159 48L160 49L159 48z"/>
<path style="fill:#578d31; stroke:none;" d="M159 49L164 51L165 54C165.081 50.2785 162.415 48.9458 159 49z"/>
<path style="fill:#a8b69d; stroke:none;" d="M169 48L170 49L169 48M173 48L174 49L173 48M71 49L72 50L71 49M74 49L75 50L74 49z"/>
<path style="fill:#486b2d; stroke:none;" d="M118 49L120 51L120 49L118 49M161 49L163 51L161 49z"/>
<path style="fill:#a8b69d; stroke:none;" d="M171 49L172 50L171 49M174 49L175 50L174 49M70 50L71 51L70 50M73 50L74 51L73 50M87 54L88 54L92 51L87 54M101 50L102 51L101 50z"/>
<path style="fill:#fdfefd; stroke:none;" d="M111 56C116.569 57.672 118.882 56.2167 124 54C118.55 51.158 114.094 49.6035 111 56z"/>
<path style="fill:#486b2d; stroke:none;" d="M146 50L147 51L146 50z"/>
<path style="fill:#a8b69d; stroke:none;" d="M160 50L161 51L160 50M172 50L173 51L172 50M175 50L176 51L175 50M71 51L72 52L71 51z"/>
<path style="fill:#578d31; stroke:none;" d="M89 51L88 54L95 54L95 53L91 53L89 51z"/>
<path style="fill:#486b2d; stroke:none;" d="M90.3333 51.6667L90.6667 52.3333L90.3333 51.6667z"/>
<path style="fill:#a8b69d; stroke:none;" d="M96.6667 51.3333L97.3333 51.6667L96.6667 51.3333M100 51L101 52L100 51M148 51L149 52L148 51M161 51L162 52L161 51z"/>
<path style="fill:#486b2d; stroke:none;" d="M163 51L164 52L163 51z"/>
<path style="fill:#a8b69d; stroke:none;" d="M174 51L175 52L174 51M177 51L178 52L177 51M67 52L68 53L67 52M70 52L71 53L70 52M94 52L95 53L94 52M119.667 52.3333L120.333 52.6667L119.667 52.3333M149.333 52.6667L149.667 53.3333L149.333 52.6667M163 52L164 53L163 52M175 52L176 53L175 52M178 52L179 53L178 52M66 53L67 54L66 53M69 53L70 54L69 53z"/>
<path style="fill:#486b2d; stroke:none;" d="M93 53L94 54L93 53z"/>
<path style="fill:#a8b69d; stroke:none;" d="M95 53L96 54L95 53M97 53L98 54L97 53z"/>
<path style="fill:#486b2d; stroke:none;" d="M99 53L100 54L99 53z"/>
<path style="fill:#a8b69d; stroke:none;" d="M124 53L125 54L124 53z"/>
<path style="fill:#486b2d; stroke:none;" d="M126 53L126 54C135.935 54.8948 137.787 62.2939 145 67C141.177 58.9665 135.107 53.4221 126 53z"/>
<path style="fill:#a8b69d; stroke:none;" d="M164 53L165 54L164 53M179 53L180 54L179 53M65 54L66 55L65 54M84.6667 54.3333L85.3333 54.6667L84.6667 54.3333M89 54L89 55L95 55L89 54M99 54L101 56L101 54L99 54z"/>
<path style="fill:#486b2d; stroke:none;" d="M104 54L105 55L104 54z"/>
<path style="fill:#a8b69d; stroke:none;" d="M120 56L123 55L120 56z"/>
<path style="fill:#486b2d; stroke:none;" d="M123.667 54.3333L124.333 54.6667L123.667 54.3333z"/>
<path style="fill:#0a0302; stroke:none;" d="M125 54.537C101.662 59.9234 110.849 111.76 136 106.301C158.762 101.36 147.669 49.3051 125 54.537z"/>
<path style="fill:#a8b69d; stroke:none;" d="M150 54L151 55L150 54M178 54L179 55L178 54M64 55L65 56L64 55M66 55L67 56L66 55M83 55L82 57L83 55M87 55L88 56L87 55M97.6667 55.3333L98.3333 55.6667L97.6667 55.3333z"/>
<path style="fill:#486b2d; stroke:none;" d="M102 55L103 56L102 55M121 55L122 56L121 55M149 55L150 56L149 55z"/>
<path style="fill:#a8b69d; stroke:none;" d="M179 55L180 56L179 55M182 55L183 56L182 55M65 56L66 57L65 56z"/>
<path style="fill:#486b2d; stroke:none;" d="M83.6667 56.3333L84.3333 56.6667L83.6667 56.3333M86 56L87 57L86 56z"/>
<path style="fill:#a8b69d; stroke:none;" d="M88 56L89 57L88 56M92 56L92 57L95 57L92 56M96 56L97 57L96 56M112.667 56.3333L113.333 56.6667L112.667 56.3333z"/>
<path style="fill:#578d31; stroke:none;" d="M119 56L120 57L119 56z"/>
<path style="fill:#a8b69d; stroke:none;" d="M151 56L152 57L151 56M180 56L181 64L183 61L189 65L192 70L193 69L180 56M183 56L184 57L183 56M61 57L62 58L61 57M64 57L65 58L64 57M81.3333 57.6667L81.6667 58.3333L81.3333 57.6667M90 57L91 58L90 57z"/>
<path style="fill:#486b2d; stroke:none;" d="M92 57L93 58L92 57z"/>
<path style="fill:#a8b69d; stroke:none;" d="M95 57L95 59L97 59L95 57z"/>
<path style="fill:#486b2d; stroke:none;" d="M97 57L97 58L99 60L100 60L97 57z"/>
<path style="fill:#fdfefd; stroke:none;" d="M102 57L105 63L104 57L102 57z"/>
<path style="fill:#486b2d; stroke:none;" d="M105.667 57.3333L106.333 57.6667L105.667 57.3333M112 57L113 58L112 57z"/>
<path style="fill:#a8b69d; stroke:none;" d="M114 57L115 58L114 57z"/>
<path style="fill:#578d31; stroke:none;" d="M118 57L119 58L118 57z"/>
<path style="fill:#a8b69d; stroke:none;" d="M184 57L185 58L184 57M60 58L61 59L60 58M63 58L64 59L63 58z"/>
<path style="fill:#486b2d; stroke:none;" d="M83 58L84 59L83 58z"/>
<path style="fill:#a8b69d; stroke:none;" d="M115.667 58.3333L116.333 58.6667L115.667 58.3333z"/>
<path style="fill:#486b2d; stroke:none;" d="M117 58L118 59L117 58M150 58L151 59L150 58z"/>
<path style="fill:#578d31; stroke:none;" d="M180 58L182 60L180 58z"/>
<path style="fill:#a8b69d; stroke:none;" d="M185 58L186 59L185 58M59 59L60 60L59 59M62 59L63 60L62 59M82 59L83 60L82 59M97 59L97 61L99 59L97 59z"/>
<path style="fill:#486b2d; stroke:none;" d="M116 59L117 60L116 59z"/>
<path style="fill:#a8b69d; stroke:none;" d="M152 59L153 60L152 59M174 59L172 62L174 59M186 59L187 60L186 59M58 60L59 61L58 60M61 60L62 61L61 60M63 60L64 61L63 60M67 60L68 61L67 60M94.3333 60.6667L94.6667 61.3333L94.3333 60.6667M101 60L102 61L101 60z"/>
<path style="fill:#486b2d; stroke:none;" d="M115.333 60.6667L115.667 61.3333L115.333 60.6667z"/>
<path style="fill:#578d31; stroke:none;" d="M172 63L174 62L174 63C173.785 68.4846 172.876 76.1849 179 78L187 102L190 107L191 107L193 105L194 108L195 108L194 103L199 106L198 109L202 116L198 117C196.695 114.92 195.819 114.059 194 116L189 113C185.643 124.826 180.209 132.719 167 133L180 148C188.709 149.139 184.243 163.578 183 169C177.935 169.609 173.155 182.809 176 187L173 188L173 189C182.335 184.558 196.083 171.071 196 160L198 160L199 158L198 155C203.453 153.779 204.982 145.868 206 141L204 141L208 135L207 131C212.806 130.082 209.288 114.293 209 110L207 111L208 105L206 105C207.654 93.1104 197.405 72.6438 187 67L183 61L172 63z"/>
<path style="fill:#a8b69d; stroke:none;" d="M176 60L177 61L176 60z"/>
<path style="fill:#fdfefd; stroke:none;" d="M184 60L185 61L184 60z"/>
<path style="fill:#a8b69d; stroke:none;" d="M187 60L188 61L187 60M60 61L61 62L60 61M62 61L63 62L62 61M69.6667 61.3333L70.3333 61.6667L69.6667 61.3333M75.6667 61.3333L76.3333 61.6667L75.6667 61.3333M80 61L81 62L80 61M84 61L82 62L82 63L84 61M102 61L103 62L102 61M109 62L109 63L113 63L109 62M178 61L179 62L178 61z"/>
<path style="fill:#fdfefd; stroke:none;" d="M185 61L186 62L185 61z"/>
<path style="fill:#a8b69d; stroke:none;" d="M188 61L189 62L188 61M59 62L60 63L59 62M61 62L62 63L61 62z"/>
<path style="fill:#486b2d; stroke:none;" d="M63 62L64 63L63 62M68 62L69 63L68 62M78 62L79 63L78 62z"/>
<path style="fill:#a8b69d; stroke:none;" d="M93.3333 62.6667L93.6667 63.3333L93.3333 62.6667M96 62L97 63L96 62M103 62L104 63L103 62M105 62L104 64L106 64L105 62z"/>
<path style="fill:#fdfefd; stroke:none;" d="M110 62L109 71C93.0971 71.5997 99.8048 80.0944 109 87L112 62L110 62z"/>
<path style="fill:#486b2d; stroke:none;" d="M114.333 62.6667L114.667 63.3333L114.333 62.6667M173.333 62.6667L173.667 63.3333L173.333 62.6667z"/>
<path style="fill:#a8b69d; stroke:none;" d="M179 62L180 63L179 62z"/>
<path style="fill:#fdfefd; stroke:none;" d="M186 62L187 63L186 62z"/>
<path style="fill:#a8b69d; stroke:none;" d="M189 62L190 63L189 62M58 63L59 64L58 63M60 63L61 64L60 63z"/>
<path style="fill:#486b2d; stroke:none;" d="M70 63L70 64L75 64L70 63M81 63L82 64L81 63z"/>
<path style="fill:#a8b69d; stroke:none;" d="M95 63L96 64L95 63z"/>
<path style="fill:#486b2d; stroke:none;" d="M102 63L104 65L102 63M107 63L106 65L107 63M148 63L149 64L148 63z"/>
<path style="fill:#a8b69d; stroke:none;" d="M150 63L151 64L150 63M172.333 63.6667L172.667 64.3333L172.333 63.6667M190 63L191 64L190 63M57 64L58 65L57 64M59 64L60 65L59 64M108 64L109 65L108 64M112 64L113 65L112 64z"/>
<path style="fill:#486b2d; stroke:none;" d="M146 64L145 66L146 64z"/>
<path style="fill:#a8b69d; stroke:none;" d="M148.667 64.3333L149.333 64.6667L148.667 64.3333z"/>
<path style="fill:#486b2d; stroke:none;" d="M180 64L181 65L180 64z"/>
<path style="fill:#fdfefd; stroke:none;" d="M187 64L188 65L187 64z"/>
<path style="fill:#a8b69d; stroke:none;" d="M191 64L192 65L191 64M54 65L55 66L54 65M56 65L54 67L56 70L57 70L56 65M58 65L59 66L58 65z"/>
<path style="fill:#486b2d; stroke:none;" d="M93.6667 65.3333L94.3333 65.6667L93.6667 65.3333z"/>
<path style="fill:#a8b69d; stroke:none;" d="M107.333 65.6667L107.667 66.3333L107.333 65.6667M113 65L114 66L113 65M147 65L148 66L147 65M173 65L174 66L173 65z"/>
<path style="fill:#fdfefd; stroke:none;" d="M188 65L189 66L188 65z"/>
<path style="fill:#a8b69d; stroke:none;" d="M53 66L54 67L53 66z"/>
<path style="fill:#486b2d; stroke:none;" d="M105.333 66.6667L105.667 67.3333L105.333 66.6667M113 66L114 67L113 66z"/>
<path style="fill:#a8b69d; stroke:none;" d="M146 66L147 67L146 66M154 66L155 67L154 66z"/>
<path style="fill:#578d31; stroke:none;" d="M154 67C156.385 69.3684 158.002 69.9687 160 67L159 67L156 69L156 68L158 66L154 67z"/>
<path style="fill:#a8b69d; stroke:none;" d="M158.667 66.3333L159.333 66.6667L158.667 66.3333z"/>
<path style="fill:#486b2d; stroke:none;" d="M187 66L188 67L187 66z"/>
<path style="fill:#fdfefd; stroke:none;" d="M189 66L192 69L189 66z"/>
<path style="fill:#a8b69d; stroke:none;" d="M192 66L193 67L192 66M52 67L53 68L52 67M106.333 67.6667L106.667 68.3333L106.333 67.6667M112 67L111 70L112 70L112 67z"/>
<path style="fill:#486b2d; stroke:none;" d="M155 67L156 68L155 67M158 67L156 68L156 69L158 67z"/>
<path style="fill:#a8b69d; stroke:none;" d="M160.333 67.6667L160.667 68.3333L160.333 67.6667M174 67L174 71L175 71L174 67z"/>
<path style="fill:#486b2d; stroke:none;" d="M188 67L189 68L188 67z"/>
<path style="fill:#a8b69d; stroke:none;" d="M193 67L194 68L193 67z"/>
<path style="fill:#fdfefd; stroke:none;" d="M54 68C41.5577 88.1803 33.8257 107.777 36.1698 132C40.4697 176.434 81.9212 212.997 127 209.91C146.555 208.571 164.757 201.542 180 189.195C186.18 184.19 189.481 172.316 197 170C203.753 158.55 209.412 145.48 210 132L209 132L205 141L207 141C201.545 157.02 189.29 183.479 172 189L179 171C170.395 175.088 161.431 174.477 153 177.991C146.226 180.814 141.158 186.895 134.999 190.771C127.398 195.555 119.242 196.297 121 207C116.529 204.851 114.768 201.837 114 197C92.9721 192.757 103.928 159.402 107 146L102 144C101.991 147.002 102.173 150.153 100.991 152.985C97.7721 160.695 88.1959 162.17 80.9961 160.242C63.9045 155.667 43.1486 123.968 71 119C70.0419 113.628 66.1653 109.334 65.3796 104C64.5411 98.3081 67.8593 92.6907 65.8503 87C64.3755 82.8225 59.1972 73.0122 56 81L51 74L56 68L54 68z"/>
<path style="fill:#486b2d; stroke:none;" d="M112 68L112 72L113 72L112 68z"/>
<path style="fill:#a8b69d; stroke:none;" d="M154 68L155 69L154 68M194 68L195 69L194 68M53 69L54 70L53 69z"/>
<path style="fill:#486b2d; stroke:none;" d="M144 69L145 70L144 69z"/>
<path style="fill:#a8b69d; stroke:none;" d="M155 69L156 70L155 69M159 69L160 70L159 69z"/>
<path style="fill:#fdfefd; stroke:none;" d="M192 69L201 85L202 85L192 69z"/>
<path style="fill:#a8b69d; stroke:none;" d="M50 70L51 71L50 70M52 70L53 71L52 70M100 70L100 71L103 71L100 70M105 70L105 71L108 71L105 70M145 70L146 71L145 70M157 70L158 71L157 70M193 70L194 71L193 70M49 71L50 72L49 71M51 71L52 72L51 71z"/>
<path style="fill:#486b2d; stroke:none;" d="M80 71L80 72L95 76C90.8145 71.8066 85.738 71.0481 80 71M97 71L98 72L97 71z"/>
<path style="fill:#a8b69d; stroke:none;" d="M99 71L100 72L99 71M104 71L105 72L104 71z"/>
<path style="fill:#486b2d; stroke:none;" d="M145 71L146 72L145 71z"/>
<path style="fill:#a8b69d; stroke:none;" d="M173 71L173 75L174 75L173 71M192 71L193 72L192 71M194 71L195 72L194 71M196 71L197 72L196 71z"/>
<path style="fill:#486b2d; stroke:none;" d="M76 74L79 73L76 74z"/>
<path style="fill:#0a0302; stroke:none;" d="M79.0039 72.6528C70.0157 75.4949 69.3671 86.3198 71.2392 94C74.4233 107.062 89.2428 123.975 104.424 119.427C112.408 117.036 113.672 106.95 112.181 100C109.422 87.1448 94.1361 67.8678 79.0039 72.6528z"/>
<path style="fill:#a8b69d; stroke:none;" d="M98 72L99 73L98 72M111 72L110 79L111 79L111 72M146 72L147 73L146 72M193 72L194 73L193 72M195 72L196 73L195 72M197 72L198 73L197 72M48 73L49 74L48 73M50 73L51 74L50 73z"/>
<path style="fill:#486b2d; stroke:none;" d="M96 73L97 74L96 73z"/>
<path style="fill:#a8b69d; stroke:none;" d="M97.3333 73.6667L97.6667 74.3333L97.3333 73.6667z"/>
<path style="fill:#486b2d; stroke:none;" d="M111 73L112 74L111 73M146 73L147 74L146 73M174 73L175 74L174 73z"/>
<path style="fill:#a8b69d; stroke:none;" d="M194 73L195 74L194 73M47 74L48 75L47 74M49 74L50 75L49 74M51 74L52 75L51 74z"/>
<path style="fill:#486b2d; stroke:none;" d="M74 74L75 75L74 74z"/>
<path style="fill:#578d31; stroke:none;" d="M111 74L112 75L111 74z"/>
<path style="fill:#486b2d; stroke:none;" d="M183 74L183 75L186 75L183 74z"/>
<path style="fill:#a8b69d; stroke:none;" d="M196 74L197 75L196 74M198 74L199 75L198 74z"/>
<path style="fill:#486b2d; stroke:none;" d="M52 75L53 76L52 75M73 75L74 76L73 75z"/>
<path style="fill:#a8b69d; stroke:none;" d="M96.3333 75.6667L96.6667 76.3333L96.3333 75.6667z"/>
<path style="fill:#486b2d; stroke:none;" d="M111.333 75.6667L111.667 76.3333L111.333 75.6667z"/>
<path style="fill:#578d31; stroke:none;" d="M147 75L148 76L147 75z"/>
<path style="fill:#486b2d; stroke:none;" d="M175 75L178 77L178 76L175 75z"/>
<path style="fill:#a8b69d; stroke:none;" d="M195 75L196 76L195 75M197 75L198 76L197 75M199 75L200 76L199 75M46 76L47 77L46 76M48 76L49 77L48 76M51 76L52 77L51 76M58 76L58 77L61 77L58 76z"/>
<path style="fill:#486b2d; stroke:none;" d="M72.3333 76.6667L72.6667 77.3333L72.3333 76.6667M147.333 76.6667L147.667 77.3333L147.333 76.6667z"/>
<path style="fill:#a8b69d; stroke:none;" d="M174 76L175 77L174 76z"/>
<path style="fill:#486b2d; stroke:none;" d="M181 76L181 84L182 84L181 76z"/>
<path style="fill:#fdfefd; stroke:none;" d="M183 76L183 79L185 76L183 76z"/>
<path style="fill:#a8b69d; stroke:none;" d="M185.333 76.6667L185.667 77.3333L185.333 76.6667M45.3333 77.6667L45.6667 78.3333L45.3333 77.6667M52 77L54 80L52 77M61.3333 77.6667L61.6667 78.3333L61.3333 77.6667z"/>
<path style="fill:#486b2d; stroke:none;" d="M62 77L63 78L62 77z"/>
<path style="fill:#a8b69d; stroke:none;" d="M97 77L98 78L97 77z"/>
<path style="fill:#578d31; stroke:none;" d="M111 77L112 78L111 77z"/>
<path style="fill:#a8b69d; stroke:none;" d="M168 78L168 79L172 80L170 77L168 78M175 77L176 78L175 77M182 77L184 83L184 84C187.697 83.1913 186.084 80.9204 185 78L182 77M196 77L197 78L196 77M198 77L199 78L198 77M200 77L201 78L200 77M47 78L48 79L47 78z"/>
<path style="fill:#486b2d; stroke:none;" d="M54 78L55 79L54 78z"/>
<path style="fill:#a8b69d; stroke:none;" d="M56 78L57 79L56 78z"/>
<path style="fill:#486b2d; stroke:none;" d="M71.3333 78.6667L71.6667 79.3333L71.3333 78.6667z"/>
<path style="fill:#a8b69d; stroke:none;" d="M98 78L99 79L98 78z"/>
<path style="fill:#486b2d; stroke:none;" d="M111 78L112 79L111 78z"/>
<path style="fill:#578d31; stroke:none;" d="M169 78L169 83L174 84L174 83L170 80L172 81L169 78z"/>
<path style="fill:#a8b69d; stroke:none;" d="M178 78L179 79L178 78M197 78L198 79L197 78M44 79L45 80L44 79M46.3333 79.6667L46.6667 80.3333L46.3333 79.6667M62.3333 79.6667L62.6667 80.3333L62.3333 79.6667z"/>
<path style="fill:#486b2d; stroke:none;" d="M63 79L64 80L63 79M99 79L100 80L99 79z"/>
<path style="fill:#578d31; stroke:none;" d="M111 79L113 104L119 100L111 79z"/>
<path style="fill:#a8b69d; stroke:none;" d="M148 79L149 80L148 79z"/>
<path style="fill:#486b2d; stroke:none;" d="M169 79L170 80L169 79z"/>
<path style="fill:#578d31; stroke:none;" d="M181 79L181 82L184 81L184 80L181 79z"/>
<path style="fill:#a8b69d; stroke:none;" d="M199 79L200 80L199 79M201 79L202 80L201 79M55 80L56 81L55 80z"/>
<path style="fill:#486b2d; stroke:none;" d="M70 80L70 84L71 84L70 80M100 80L102 82L100 80z"/>
<path style="fill:#a8b69d; stroke:none;" d="M101 80L102 81L101 80z"/>
<path style="fill:#578d31; stroke:none;" d="M148 80L149 81L148 80z"/>
<path style="fill:#a8b69d; stroke:none;" d="M168 80L169 81L168 80z"/>
<path style="fill:#486b2d; stroke:none;" d="M170 80L170 82L172 82L170 80M182 80L183 81L182 80z"/>
<path style="fill:#fdfefd; stroke:none;" d="M184 80L183 84L186 83L184 80z"/>
<path style="fill:#a8b69d; stroke:none;" d="M198 80L199 81L198 80M200.333 80.6667L200.667 81.3333L200.333 80.6667M43 81L44 82L43 81M45 81L46 82L45 81M63.3333 81.6667L63.6667 82.3333L63.3333 81.6667z"/>
<path style="fill:#486b2d; stroke:none;" d="M64 81L65 82L64 81z"/>
<path style="fill:#578d31; stroke:none;" d="M102 81L104 83L102 81z"/>
<path style="fill:#a8b69d; stroke:none;" d="M103 81L104 82L103 81M110 81L111 82L110 81M148 81L149 82L148 81M172 81L173 82L172 81M183 81L184 82L183 81z"/>
<path style="fill:#486b2d; stroke:none;" d="M197 81L198 82L197 81z"/>
<path style="fill:#a8b69d; stroke:none;" d="M202 81L203 82L202 81M104 82L104 83L106 86L107 86L104 82M109 82L110 83L109 82z"/>
<path style="fill:#486b2d; stroke:none;" d="M148 82L148 86L149 86L148 82z"/>
<path style="fill:#a8b69d; stroke:none;" d="M168 82L169 83L168 82M173 82L174 83L173 82M179.333 82.6667L179.667 83.3333L179.333 82.6667M182.333 82.6667L182.667 83.3333L182.333 82.6667M199 82L200 83L199 82M201 82L202 83L201 82M203.333 82.6667L203.667 83.3333L203.333 82.6667M42 83L43 84L42 83M44 83L45 84L44 83M64.3333 83.6667L64.6667 84.3333L64.3333 83.6667z"/>
<path style="fill:#486b2d; stroke:none;" d="M65 83L66 84L65 83M103.667 83.3333L104.333 83.6667L103.667 83.3333z"/>
<path style="fill:#578d31; stroke:none;" d="M105.333 83.6667L105.667 84.3333L105.333 83.6667z"/>
<path style="fill:#a8b69d; stroke:none;" d="M108 83L108 86L109 86L108 83z"/>
<path style="fill:#486b2d; stroke:none;" d="M110 83L111 84L110 83M112 83L113 84L112 83z"/>
<path style="fill:#a8b69d; stroke:none;" d="M166 83L167 84L166 83z"/>
<path style="fill:#486b2d; stroke:none;" d="M167 83L167 84L173 84L167 83z"/>
<path style="fill:#a8b69d; stroke:none;" d="M174 83L177 86L174 83z"/>
<path style="fill:#486b2d; stroke:none;" d="M198 83L199 84L198 83z"/>
<path style="fill:#a8b69d; stroke:none;" d="M200.333 83.6667L200.667 84.3333L200.333 83.6667M164 84L165 85L164 84z"/>
<path style="fill:#486b2d; stroke:none;" d="M165 84L166 85L165 84z"/>
<path style="fill:#0a0302; stroke:none;" d="M166.015 84.6127C144.212 90.5061 150.902 137.771 175 131.386C197.176 125.51 189.266 78.3277 166.015 84.6127z"/>
<path style="fill:#486b2d; stroke:none;" d="M174 84L175 85L174 84M185 84L186 85L185 84z"/>
<path style="fill:#a8b69d; stroke:none;" d="M202 84L201 87L203 86L202 89L203 89L202 84M41.3333 85.6667L41.6667 86.3333L41.3333 85.6667M43 85L44 86L43 85M65 85L66 86L65 85z"/>
<path style="fill:#486b2d; stroke:none;" d="M69 85L70 86L69 85M105 85L108 89L105 85M112 85L113 86L112 85z"/>
<path style="fill:#a8b69d; stroke:none;" d="M162 85L163 86L162 85z"/>
<path style="fill:#486b2d; stroke:none;" d="M163 85L164 86L163 85z"/>
<path style="fill:#a8b69d; stroke:none;" d="M179 85L180 86L179 85z"/>
<path style="fill:#486b2d; stroke:none;" d="M199 85L200 86L199 85z"/>
<path style="fill:#a8b69d; stroke:none;" d="M204 85L205 86L204 85z"/>
<path style="fill:#578d31; stroke:none;" d="M106 86L107 87L106 86M148 86L149 87L148 86z"/>
<path style="fill:#a8b69d; stroke:none;" d="M160 86L159 88L160 86z"/>
<path style="fill:#486b2d; stroke:none;" d="M177 86L180 88L180 87L177 86z"/>
<path style="fill:#a8b69d; stroke:none;" d="M178 86L179 87L178 86z"/>
<path style="fill:#fdfefd; stroke:none;" d="M202.333 86.6667L202.667 87.3333L202.333 86.6667z"/>
<path style="fill:#a8b69d; stroke:none;" d="M205.333 86.6667L205.667 87.3333L205.333 86.6667M40.3333 87.6667L40.6667 88.3333L40.3333 87.6667M42 87L43 88L42 87M66 87L67 88L66 87z"/>
<path style="fill:#486b2d; stroke:none;" d="M69 87L70 88L69 87z"/>
<path style="fill:#a8b69d; stroke:none;" d="M107.667 87.3333L108.333 87.6667L107.667 87.3333z"/>
<path style="fill:#486b2d; stroke:none;" d="M148 87L149 88L148 87M160 87L161 88L160 87M200 87L201 88L200 87z"/>
<path style="fill:#a8b69d; stroke:none;" d="M67 88L66 93L67 93L67 88z"/>
<path style="fill:#578d31; stroke:none;" d="M148.333 88.6667L148.667 89.3333L148.333 88.6667z"/>
<path style="fill:#a8b69d; stroke:none;" d="M158 88L159 89L158 88z"/>
<path style="fill:#486b2d; stroke:none;" d="M180 88L181 89L180 88z"/>
<path style="fill:#fdfefd; stroke:none;" d="M203 88L205 95L206 95L203 88z"/>
<path style="fill:#a8b69d; stroke:none;" d="M41.3333 89.6667L41.6667 90.3333L41.3333 89.6667z"/>
<path style="fill:#486b2d; stroke:none;" d="M108.333 89.6667L108.667 90.3333L108.333 89.6667M113.333 89.6667L113.667 90.3333L113.333 89.6667M158 89L159 90L158 89M181 89L182 90L181 89z"/>
<path style="fill:#a8b69d; stroke:none;" d="M204 89L205 90L204 89M206.333 89.6667L206.667 90.3333L206.333 89.6667M39 90L40 91L39 90z"/>
<path style="fill:#486b2d; stroke:none;" d="M69 90L70 95L71 95L69 90z"/>
<path style="fill:#a8b69d; stroke:none;" d="M148.333 90.6667L148.667 91.3333L148.333 90.6667z"/>
<path style="fill:#486b2d; stroke:none;" d="M157 90L158 91L157 90M182.333 90.6667L182.667 91.3333L182.333 90.6667z"/>
<path style="fill:#a8b69d; stroke:none;" d="M203 90L204 91L203 90z"/>
<path style="fill:#486b2d; stroke:none;" d="M114.333 91.6667L114.667 92.3333L114.333 91.6667z"/>
<path style="fill:#a8b69d; stroke:none;" d="M156 91L157 92L156 91M205.333 91.6667L205.667 92.3333L205.333 91.6667M207.333 91.6667L207.667 92.3333L207.333 91.6667M38.3333 92.6667L38.6667 93.3333L38.3333 92.6667M40.3333 92.6667L40.6667 93.3333L40.3333 92.6667z"/>
<path style="fill:#486b2d; stroke:none;" d="M109 92L110 93L109 92M156 92L157 93L156 92M183 92L184 93L183 92M115.333 93.6667L115.667 94.3333L115.333 93.6667M147 93L148 94L147 93z"/>
<path style="fill:#a8b69d; stroke:none;" d="M155 93L156 94L155 93z"/>
<path style="fill:#486b2d; stroke:none;" d="M184.333 93.6667L184.667 94.3333L184.333 93.6667z"/>
<path style="fill:#a8b69d; stroke:none;" d="M204 93L205 94L204 93M66 94L66 98L67 98L66 94z"/>
<path style="fill:#486b2d; stroke:none;" d="M110 94L111 95L110 94z"/>
<path style="fill:#a8b69d; stroke:none;" d="M147 94L148 95L147 94z"/>
<path style="fill:#486b2d; stroke:none;" d="M155 94L156 95L155 94z"/>
<path style="fill:#a8b69d; stroke:none;" d="M206 94L205 97L206 94M208.333 94.6667L208.667 95.3333L208.333 94.6667M37.3333 95.6667L37.6667 96.3333L37.3333 95.6667M39.3333 95.6667L39.6667 96.3333L39.3333 95.6667z"/>
<path style="fill:#486b2d; stroke:none;" d="M71.3333 95.6667L71.6667 96.3333L71.3333 95.6667z"/>
<path style="fill:#a8b69d; stroke:none;" d="M154 95L155 96L154 95z"/>
<path style="fill:#486b2d; stroke:none;" d="M185.333 95.6667L185.667 96.3333L185.333 95.6667M111 96L112 97L111 96M116 96L117 97L116 96M146 96L147 97L146 96M154 96L155 97L154 96z"/>
<path style="fill:#a8b69d; stroke:none;" d="M196 96L197 97L196 96z"/>
<path style="fill:#fdfefd; stroke:none;" d="M206.333 96.6667L206.667 97.3333L206.333 96.6667z"/>
<path style="fill:#578d31; stroke:none;" d="M146 97L147 98L146 97z"/>
<path style="fill:#a8b69d; stroke:none;" d="M153.333 97.6667L153.667 98.3333L153.333 97.6667z"/>
<path style="fill:#486b2d; stroke:none;" d="M186.333 97.6667L186.667 98.3333L186.333 97.6667z"/>
<path style="fill:#fdfefd; stroke:none;" d="M196 97L201 101L196 97z"/>
<path style="fill:#a8b69d; stroke:none;" d="M198 97L199 98L198 97M207 97L209.711 117L210 135L211 135L210.407 109L207 101L207 97M38.3333 98.6667L38.6667 99.3333L38.3333 98.6667z"/>
<path style="fill:#486b2d; stroke:none;" d="M72.3333 98.6667L72.6667 99.3333L72.3333 98.6667M112 98L112 102L113 102L112 98M117.667 98.3333L118.333 98.6667L117.667 98.3333M145 98L146 99L145 98z"/>
<path style="fill:#a8b69d; stroke:none;" d="M199 98L200 99L199 98M209 98L210 99L209 98M36 99L37 100L36 99M65 99L65 106L66 106L65 99z"/>
<path style="fill:#486b2d; stroke:none;" d="M119 99L120 100L119 99z"/>
<path style="fill:#a8b69d; stroke:none;" d="M145 99L146 100L145 99z"/>
<path style="fill:#486b2d; stroke:none;" d="M153.333 99.6667L153.667 100.333L153.333 99.6667M187.333 99.6667L187.667 100.333L187.333 99.6667z"/>
<path style="fill:#a8b69d; stroke:none;" d="M196.333 99.6667L196.667 100.333L196.333 99.6667M200 99L201 100L200 99z"/>
<path style="fill:#486b2d; stroke:none;" d="M205 99L206 100L205 99z"/>
<path style="fill:#fdfefd; stroke:none;" d="M207.333 99.6667L207.667 100.333L207.333 99.6667z"/>
<path style="fill:#486b2d; stroke:none;" d="M73.3333 100.667L73.6667 101.333L73.3333 100.667M116 100L115 102L116 100z"/>
<path style="fill:#a8b69d; stroke:none;" d="M118.667 100.333L119.333 100.667L118.667 100.333M152 100L152 105L153 105L152 100M201 100L197 101L197 102L201 100M37 101L37 105L38 105L37 101M117 101L118 102L117 101M120 101L121 102L120 101z"/>
<path style="fill:#578d31; stroke:none;" d="M144 101L145 102L144 101z"/>
<path style="fill:#a8b69d; stroke:none;" d="M210 101L210 104L211 104L210 101M35 102L35 105L36 105L35 102z"/>
<path style="fill:#486b2d; stroke:none;" d="M74.3333 102.667L74.6667 103.333L74.3333 102.667M113 102L114 103L113 102z"/>
<path style="fill:#a8b69d; stroke:none;" d="M116 102L117 103L116 102M121 102L122 103L121 102z"/>
<path style="fill:#578d31; stroke:none;" d="M143 102L144 103L143 102z"/>
<path style="fill:#486b2d; stroke:none;" d="M187 102L187 105L188 105L187 102z"/>
<path style="fill:#a8b69d; stroke:none;" d="M188 102L188 108L194 107L194 106L190 107L188 102M114 103L115 104L114 103M122 103L123 104L122 103z"/>
<path style="fill:#486b2d; stroke:none;" d="M142 103L143 104L142 103z"/>
<path style="fill:#a8b69d; stroke:none;" d="M194 103L194 104L194 109C196.641 106.967 196.763 104.9 194 103z"/>
<path style="fill:#486b2d; stroke:none;" d="M206.333 103.667L206.667 104.333L206.333 103.667M75 104L75 106L77 106L75 104z"/>
<path style="fill:#a8b69d; stroke:none;" d="M113 104L113 107L114 107L113 104M123 104L124 105L123 104z"/>
<path style="fill:#578d31; stroke:none;" d="M124 104L125 105L124 104z"/>
<path style="fill:#a8b69d; stroke:none;" d="M141 104L142 105L141 104z"/>
<path style="fill:#fdfefd; stroke:none;" d="M189 104L190 105L189 104M195.333 104.667L195.667 105.333L195.333 104.667z"/>
<path style="fill:#a8b69d; stroke:none;" d="M126 105L127 106L126 105z"/>
<path style="fill:#486b2d; stroke:none;" d="M127 105L128 106L127 105M139 105L140 106L139 105z"/>
<path style="fill:#578d31; stroke:none;" d="M140 105L141 106L140 105M152 105L153 106L152 105z"/>
<path style="fill:#a8b69d; stroke:none;" d="M36 106L36 111L37 111L36 106M128.667 106.333L129.333 106.667L128.667 106.333z"/>
<path style="fill:#486b2d; stroke:none;" d="M130 106L131 107L130 106M135 106L135 107L138 107L135 106z"/>
<path style="fill:#a8b69d; stroke:none;" d="M138 106L139 107L138 106z"/>
<path style="fill:#486b2d; stroke:none;" d="M152 106L153 107L152 106z"/>
<path style="fill:#fdfefd; stroke:none;" d="M192 106C185.441 113.549 195.426 114.182 201 115L197 106L196 106L196 109L192 106z"/>
<path style="fill:#486b2d; stroke:none;" d="M198.333 106.667L198.667 107.333L198.333 106.667z"/>
<path style="fill:#a8b69d; stroke:none;" d="M211 106L211 110L212 110L211 106M66.3333 107.667L66.6667 108.333L66.3333 107.667z"/>
<path style="fill:#486b2d; stroke:none;" d="M77 107L78 108L77 107z"/>
<path style="fill:#a8b69d; stroke:none;" d="M131 107L131 108L135 108L131 107z"/>
<path style="fill:#578d31; stroke:none;" d="M152 107L152 111L153 111L152 107z"/>
<path style="fill:#a8b69d; stroke:none;" d="M197.333 107.667L197.667 108.333L197.333 107.667z"/>
<path style="fill:#486b2d; stroke:none;" d="M207 107L207 111L208 111L207 107z"/>
<path style="fill:#a8b69d; stroke:none;" d="M34 108L34 112L35 112L34 108z"/>
<path style="fill:#486b2d; stroke:none;" d="M78 108L79 109L78 108M112.333 108.667L112.667 109.333L112.333 108.667z"/>
<path style="fill:#578d31; stroke:none;" d="M188 108L189 109L188 108z"/>
<path style="fill:#a8b69d; stroke:none;" d="M67 109L68 110L67 109z"/>
<path style="fill:#486b2d; stroke:none;" d="M79 109L80 110L79 109M188 109L188 115L189 115L188 109z"/>
<path style="fill:#a8b69d; stroke:none;" d="M199 109L200 110L199 109z"/>
<path style="fill:#486b2d; stroke:none;" d="M80 110L80 112L82 112L80 110z"/>
<path style="fill:#578d31; stroke:none;" d="M112 110L113 111L112 110z"/>
<path style="fill:#a8b69d; stroke:none;" d="M200 110L200 113L201 113L200 110M68 111L69 112L68 111M112 111L113 112L112 111M152.333 111.667L152.667 112.333L152.333 111.667M35 112L35 133L36 133L35 112z"/>
<path style="fill:#486b2d; stroke:none;" d="M70 112L71 113L70 112M82 112L82 114L84 114L82 112z"/>
<path style="fill:#a8b69d; stroke:none;" d="M189 112L190 113L189 112M69 113L70 114L69 113z"/>
<path style="fill:#486b2d; stroke:none;" d="M111 113L112 114L111 113z"/>
<path style="fill:#a8b69d; stroke:none;" d="M190 113L191 114L190 113M195 113L196 114L195 113M212 113L212 132L213 132L212 113z"/>
<path style="fill:#486b2d; stroke:none;" d="M71 114L72 115L71 114M84 114L85 115L84 114z"/>
<path style="fill:#a8b69d; stroke:none;" d="M111 114L112 115L111 114z"/>
<path style="fill:#486b2d; stroke:none;" d="M153 114L154 115L153 114z"/>
<path style="fill:#a8b69d; stroke:none;" d="M191 114L192 115L191 114M197 114L198 115L197 114M201 114L198 115L198 116L201 114M70 115L71 116L70 115z"/>
<path style="fill:#486b2d; stroke:none;" d="M85.6667 115.333L86.3333 115.667L85.6667 115.333z"/>
<path style="fill:#578d31; stroke:none;" d="M110 115L111 116L110 115M153 115L154 116L153 115z"/>
<path style="fill:#486b2d; stroke:none;" d="M190 115L191 116L190 115z"/>
<path style="fill:#a8b69d; stroke:none;" d="M192.667 115.333L193.333 115.667L192.667 115.333z"/>
<path style="fill:#486b2d; stroke:none;" d="M195 115L196 116L195 115z"/>
<path style="fill:#a8b69d; stroke:none;" d="M33 116L33 129L34 129L33 116M71 116L71 120L72 120L71 116z"/>
<path style="fill:#486b2d; stroke:none;" d="M72.3333 116.667L72.6667 117.333L72.3333 116.667M87 116L88 117L87 116M109 116L110 117L109 116z"/>
<path style="fill:#a8b69d; stroke:none;" d="M110 116L111 117L110 116M153 116L154 117L153 116z"/>
<path style="fill:#486b2d; stroke:none;" d="M187 116L187 119L188 119L187 116M198 116L199 117L198 116M208 116L208 119L209 119L208 116M88.6667 117.333L89.3333 117.667L88.6667 117.333z"/>
<path style="fill:#a8b69d; stroke:none;" d="M108 117L109 118L108 117z"/>
<path style="fill:#486b2d; stroke:none;" d="M154 117L155 118L154 117z"/>
<path style="fill:#a8b69d; stroke:none;" d="M74 118L75 119L74 118z"/>
<path style="fill:#486b2d; stroke:none;" d="M90.6667 118.333L91.3333 118.667L90.6667 118.333M107 118L108 119L107 118z"/>
<path style="fill:#a8b69d; stroke:none;" d="M154 118L154 121L155 121L154 118M67 119L68 120L67 119z"/>
<path style="fill:#578d31; stroke:none;" d="M68 119L69 120L68 119z"/>
<path style="fill:#a8b69d; stroke:none;" d="M69 119L70 120L69 119z"/>
<path style="fill:#486b2d; stroke:none;" d="M70 119L71 120L70 119M72.6667 119.333L73.3333 119.667L72.6667 119.333M77 119L77 120L88 125L77 119z"/>
<path style="fill:#a8b69d; stroke:none;" d="M90 119L91 120L90 119M93 119L94 120L93 119z"/>
<path style="fill:#486b2d; stroke:none;" d="M94 119L94 120L97 120L94 119M103 119L104 120L103 119M105 119L105 122L106 122L105 119z"/>
<path style="fill:#a8b69d; stroke:none;" d="M106 119L105 124L106 119M65 120L66 121L65 120z"/>
<path style="fill:#486b2d; stroke:none;" d="M66 120L67 121L66 120z"/>
<path style="fill:#0a0302; stroke:none;" d="M67.0147 120.613C57.0236 123.377 56.3318 134.972 60.2392 143C65.6246 154.065 79.433 163.122 92 159.681C102.337 156.85 102.573 146.241 98.4815 138C92.9334 126.825 80.0373 117.011 67.0147 120.613z"/>
<path style="fill:#486b2d; stroke:none;" d="M88 120L89 121L88 120z"/>
<path style="fill:#a8b69d; stroke:none;" d="M89.3333 120.667L89.6667 121.333L89.3333 120.667M97 120L97 121L100 121L97 120z"/>
<path style="fill:#578d31; stroke:none;" d="M100 120L101 121L100 120z"/>
<path style="fill:#a8b69d; stroke:none;" d="M101 120L102 121L101 120M103 120L105 122L103 120z"/>
<path style="fill:#578d31; stroke:none;" d="M104 120L105 121L104 120z"/>
<path style="fill:#486b2d; stroke:none;" d="M186.333 120.667L186.667 121.333L186.333 120.667z"/>
<path style="fill:#578d31; stroke:none;" d="M63 121L64 122L63 121z"/>
<path style="fill:#486b2d; stroke:none;" d="M64 121L65 122L64 121M155 121L158 124L155 121z"/>
<path style="fill:#a8b69d; stroke:none;" d="M61 122L62 123L61 122z"/>
<path style="fill:#578d31; stroke:none;" d="M105 122L106 123L105 122z"/>
<path style="fill:#a8b69d; stroke:none;" d="M155 122L156 123L155 122z"/>
<path style="fill:#486b2d; stroke:none;" d="M185.333 122.667L185.667 123.333L185.333 122.667M61 123L62 124L61 123z"/>
<path style="fill:#a8b69d; stroke:none;" d="M88.3333 123.667L88.6667 124.333L88.3333 123.667M125 123L125 124L128 124L125 123z"/>
<path style="fill:#486b2d; stroke:none;" d="M128 123L129 124L128 123z"/>
<path style="fill:#0a0302; stroke:none;" d="M128.715 123.62C109.185 126.174 101.434 160.219 102.363 176.514C102.947 186.769 106.074 198.271 119 196.776C133.488 195.1 141.448 182.274 154 176.955C164.533 172.492 178.617 176.541 183.851 163C186.809 155.348 180.688 147.568 175.271 142.749C163.797 132.543 144.801 121.516 128.715 123.62z"/>
<path style="fill:#486b2d; stroke:none;" d="M130 123L131 124L130 123M132 123L132 124L137 124L132 123z"/>
<path style="fill:#a8b69d; stroke:none;" d="M137.667 123.333L138.333 123.667L137.667 123.333M156 123L157 124L156 123z"/>
<path style="fill:#486b2d; stroke:none;" d="M60 124L61 125L60 124z"/>
<path style="fill:#a8b69d; stroke:none;" d="M123 124L124 125L123 124z"/>
<path style="fill:#486b2d; stroke:none;" d="M124 124L125 125L124 124M140.667 124.333L141.333 124.667L140.667 124.333z"/>
<path style="fill:#578d31; stroke:none;" d="M142 124L143 125L142 124z"/>
<path style="fill:#a8b69d; stroke:none;" d="M143 124L144 125L143 124z"/>
<path style="fill:#578d31; stroke:none;" d="M157 124L158 125L157 124z"/>
<path style="fill:#486b2d; stroke:none;" d="M184.333 124.667L184.667 125.333L184.333 124.667M208 124L208 127L209 127L208 124z"/>
<path style="fill:#578d31; stroke:none;" d="M59 125L60 126L59 125M88 125L89 126L88 125z"/>
<path style="fill:#a8b69d; stroke:none;" d="M121 125L122 126L121 125z"/>
<path style="fill:#486b2d; stroke:none;" d="M144 125L145 126L144 125z"/>
<path style="fill:#578d31; stroke:none;" d="M145 125L146 126L145 125z"/>
<path style="fill:#a8b69d; stroke:none;" d="M146 125L147 126L146 125M157 125L161 129L157 125z"/>
<path style="fill:#486b2d; stroke:none;" d="M158 125L159 126L158 125z"/>
<path style="fill:#a8b69d; stroke:none;" d="M58 126L59 127L58 126z"/>
<path style="fill:#578d31; stroke:none;" d="M89 126L90 127L89 126z"/>
<path style="fill:#a8b69d; stroke:none;" d="M102 127L102 128L107 127L102 127M120 126L121 127L120 126z"/>
<path style="fill:#486b2d; stroke:none;" d="M147 126L148 127L147 126z"/>
<path style="fill:#578d31; stroke:none;" d="M148 126L149 127L148 126z"/>
<path style="fill:#486b2d; stroke:none;" d="M159 126L160 127L159 126M183 126L184 127L183 126M58 127L59 128L58 127z"/>
<path style="fill:#a8b69d; stroke:none;" d="M90 127L91 128L90 127z"/>
<path style="fill:#578d31; stroke:none;" d="M105 127L105 128L112 131L105 127z"/>
<path style="fill:#a8b69d; stroke:none;" d="M108.667 127.333L109.333 127.667L108.667 127.333z"/>
<path style="fill:#578d31; stroke:none;" d="M119 127L120 128L119 127z"/>
<path style="fill:#486b2d; stroke:none;" d="M150 127L151 128L150 127z"/>
<path style="fill:#a8b69d; stroke:none;" d="M151 127L152 128L151 127z"/>
<path style="fill:#486b2d; stroke:none;" d="M160 127L161 128L160 127M182 127L183 128L182 127M91 128L92 129L91 128z"/>
<path style="fill:#a8b69d; stroke:none;" d="M95 129L95 130L99 131C99.4739 128.181 97.2622 128.488 95 129M106 128L107 129L106 128M111 128L112 129L111 128z"/>
<path style="fill:#486b2d; stroke:none;" d="M118 128L119 129L118 128M152 128L153 129L152 128z"/>
<path style="fill:#578d31; stroke:none;" d="M153 128L154 129L153 128z"/>
<path style="fill:#a8b69d; stroke:none;" d="M154 128L155 129L154 128z"/>
<path style="fill:#486b2d; stroke:none;" d="M161 128L162 129L161 128M181 128L182 129L181 128z"/>
<path style="fill:#a8b69d; stroke:none;" d="M57.3333 129.667L57.6667 130.333L57.3333 129.667z"/>
<path style="fill:#578d31; stroke:none;" d="M92 129L93 130L92 129M96 129L97 135L98 135L99 129L98 129L98 133L97 133L96 129z"/>
<path style="fill:#486b2d; stroke:none;" d="M97 129L97 133L98 133L97 129z"/>
<path style="fill:#a8b69d; stroke:none;" d="M108 129L109 130L108 129M112.333 129.667L112.667 130.333L112.333 129.667z"/>
<path style="fill:#578d31; stroke:none;" d="M117 129L118 130L117 129z"/>
<path style="fill:#a8b69d; stroke:none;" d="M155 129L156 130L155 129M162 129L163 130L162 129z"/>
<path style="fill:#486b2d; stroke:none;" d="M180 129L181 130L180 129z"/>
<path style="fill:#fdfefd; stroke:none;" d="M210 129L211 130L210 129z"/>
<path style="fill:#578d31; stroke:none;" d="M93 130L94 131L93 130z"/>
<path style="fill:#a8b69d; stroke:none;" d="M109 130L110 131L109 130M115 130L116 131L115 130z"/>
<path style="fill:#486b2d; stroke:none;" d="M116 130L117 131L116 130M156 130L157 131L156 130z"/>
<path style="fill:#578d31; stroke:none;" d="M157 130L158 131L157 130z"/>
<path style="fill:#a8b69d; stroke:none;" d="M158 130L160 132L158 130M163 130L164 131L163 130z"/>
<path style="fill:#486b2d; stroke:none;" d="M164 130L165 131L164 130M177 130L177 131L180 131L177 130z"/>
<path style="fill:#578d31; stroke:none;" d="M57 131L58 132L57 131z"/>
<path style="fill:#486b2d; stroke:none;" d="M94 131L96 135L97 135L94 131z"/>
<path style="fill:#a8b69d; stroke:none;" d="M113 131L113 134L114 134L113 131z"/>
<path style="fill:#578d31; stroke:none;" d="M114.333 131.667L114.667 132.333L114.333 131.667z"/>
<path style="fill:#486b2d; stroke:none;" d="M115 131L116 132L115 131M158 131L159 132L158 131z"/>
<path style="fill:#a8b69d; stroke:none;" d="M166 131L168 133L166 131z"/>
<path style="fill:#486b2d; stroke:none;" d="M167 131L168 132L167 131M175.667 131.333L176.333 131.667L175.667 131.333M207.333 131.667L207.667 132.333L207.333 131.667M57 132L58 133L57 132M160 132L161 133L160 132z"/>
<path style="fill:#a8b69d; stroke:none;" d="M161 132L162 133L161 132z"/>
<path style="fill:#486b2d; stroke:none;" d="M168 132L168 133L174 133L168 132z"/>
<path style="fill:#a8b69d; stroke:none;" d="M208 132L208 135L209 135L208 132z"/>
<path style="fill:#578d31; stroke:none;" d="M57 133L58 134L57 133z"/>
<path style="fill:#a8b69d; stroke:none;" d="M98 133C98.6544 136.054 100.007 135.936 103 136L103 135L98 133z"/>
<path style="fill:#486b2d; stroke:none;" d="M114 133L115 134L114 133z"/>
<path style="fill:#578d31; stroke:none;" d="M162 133L163 134L162 133z"/>
<path style="fill:#a8b69d; stroke:none;" d="M163 133L165 135L163 133M34 134L34 137L35 137L34 134M36 134L36 139L37 139L36 134z"/>
<path style="fill:#486b2d; stroke:none;" d="M57 134L58 135L57 134z"/>
<path style="fill:#578d31; stroke:none;" d="M113 134L114 135L113 134z"/>
<path style="fill:#486b2d; stroke:none;" d="M163 134L164 135L163 134z"/>
<path style="fill:#578d31; stroke:none;" d="M57 135L58 136L57 135z"/>
<path style="fill:#486b2d; stroke:none;" d="M97 135L98 136L97 135M113 135L114 136L113 135M165 135L166 136L165 135z"/>
<path style="fill:#a8b69d; stroke:none;" d="M166 135L167 136L166 135z"/>
<path style="fill:#486b2d; stroke:none;" d="M206 135L207 136L206 135z"/>
<path style="fill:#a8b69d; stroke:none;" d="M207.333 135.667L207.667 136.333L207.333 135.667M211 135L211 139L212 139L211 135M57.3333 136.667L57.6667 137.333L57.3333 136.667z"/>
<path style="fill:#486b2d; stroke:none;" d="M98 136L101 141L98 136z"/>
<path style="fill:#578d31; stroke:none;" d="M99 136L100 142L109 144L109 143C104.891 142.478 103.595 139.888 103 136L99 136z"/>
<path style="fill:#486b2d; stroke:none;" d="M100.667 136.333L101.333 136.667L100.667 136.333M112 136L113 137L112 136M167 136L168 137L167 136M205 136L206 137L205 136z"/>
<path style="fill:#a8b69d; stroke:none;" d="M103 137L103 141L104 141L103 137M111 137L112 138L111 137z"/>
<path style="fill:#486b2d; stroke:none;" d="M168.667 137.333L169.333 137.667L168.667 137.333z"/>
<path style="fill:#a8b69d; stroke:none;" d="M206 137L207 138L206 137M209 137L209 141L210 141L209 137z"/>
<path style="fill:#486b2d; stroke:none;" d="M58.3333 138.667L58.6667 139.333L58.3333 138.667M111 138L112 139L111 138M170 138L171 139L170 138z"/>
<path style="fill:#a8b69d; stroke:none;" d="M205 138L206 139L205 138z"/>
<path style="fill:#578d31; stroke:none;" d="M110 139L111 140L110 139z"/>
<path style="fill:#486b2d; stroke:none;" d="M171 139L174 141L171 139z"/>
<path style="fill:#a8b69d; stroke:none;" d="M204.333 139.667L204.667 140.333L204.333 139.667M35 140L35 143L36 143L35 140M37 140L37 144L38 144L37 140M58 140L59 141L58 140z"/>
<path style="fill:#486b2d; stroke:none;" d="M110 140L111 141L110 140M59 141L60 142L59 141z"/>
<path style="fill:#a8b69d; stroke:none;" d="M104 141L105 142L104 141M109 141L110 142L109 141z"/>
<path style="fill:#486b2d; stroke:none;" d="M174 141L174 143L176 143L174 141z"/>
<path style="fill:#a8b69d; stroke:none;" d="M206.333 141.667L206.667 142.333L206.333 141.667M208 141L208 145L209 145L208 141M210 141L210 144L211 144L210 141M59 142L60 143L59 142z"/>
<path style="fill:#486b2d; stroke:none;" d="M100 142L101 143L100 142M103 142L105 144L103 142z"/>
<path style="fill:#a8b69d; stroke:none;" d="M105 142L106 143L105 142z"/>
<path style="fill:#486b2d; stroke:none;" d="M109 142L110 143L109 142M204 142L205 143L204 142z"/>
<path style="fill:#a8b69d; stroke:none;" d="M101 143L101 146L102 146L103 143L101 143M107 143L108 144L107 143z"/>
<path style="fill:#486b2d; stroke:none;" d="M176 143L177 144L176 143z"/>
<path style="fill:#a8b69d; stroke:none;" d="M205 143L205 146L206 146L205 143M60 144L61 145L60 144M103 144L104 145L103 144z"/>
<path style="fill:#486b2d; stroke:none;" d="M108 144L109 145L108 144M177 144L178 145L177 144z"/>
<path style="fill:#a8b69d; stroke:none;" d="M36.3333 145.667L36.6667 146.333L36.3333 145.667M38.3333 145.667L38.6667 146.333L38.3333 145.667z"/>
<path style="fill:#486b2d; stroke:none;" d="M61 145L63 147L61 145z"/>
<path style="fill:#a8b69d; stroke:none;" d="M105 145L105 146L108 147L105 145z"/>
<path style="fill:#486b2d; stroke:none;" d="M178 145L179 146L178 145z"/>
<path style="fill:#a8b69d; stroke:none;" d="M61 146L62 147L61 146z"/>
<path style="fill:#578d31; stroke:none;" d="M101 146L102 147L101 146z"/>
<path style="fill:#486b2d; stroke:none;" d="M179 146L180 147L179 146z"/>
<path style="fill:#a8b69d; stroke:none;" d="M207.333 146.667L207.667 147.333L207.333 146.667M209 146L210 147L209 146M62 147L63 148L62 147z"/>
<path style="fill:#486b2d; stroke:none;" d="M101 147L101 151L102 151L101 147M107 147L108 148L107 147z"/>
<path style="fill:#a8b69d; stroke:none;" d="M181 147L180 149L181 147M204 147L205 148L204 147M37.3333 148.667L37.6667 149.333L37.3333 148.667M39.3333 148.667L39.6667 149.333L39.3333 148.667z"/>
<path style="fill:#578d31; stroke:none;" d="M63 148L64 149L63 148z"/>
<path style="fill:#a8b69d; stroke:none;" d="M106.333 148.667L106.667 149.333L106.333 148.667z"/>
<path style="fill:#fdfefd; stroke:none;" d="M181 148L183 152L184 152L181 148z"/>
<path style="fill:#a8b69d; stroke:none;" d="M183 148L184 149L183 148z"/>
<path style="fill:#486b2d; stroke:none;" d="M64 149L70 155L64 149z"/>
<path style="fill:#578d31; stroke:none;" d="M181 149L182 150L181 149z"/>
<path style="fill:#a8b69d; stroke:none;" d="M184 149L183 153L184 149M203 149L204 150L203 149M206.333 149.667L206.667 150.333L206.333 149.667M208.333 149.667L208.667 150.333L208.333 149.667M64 150L65 151L64 150z"/>
<path style="fill:#486b2d; stroke:none;" d="M106 150L107 151L106 150z"/>
<path style="fill:#a8b69d; stroke:none;" d="M38.3333 151.667L38.6667 152.333L38.3333 151.667M40.3333 151.667L40.6667 152.333L40.3333 151.667M65 151L66 152L65 151M101.333 151.667L101.667 152.333L101.333 151.667M105.333 151.667L105.667 152.333L105.333 151.667z"/>
<path style="fill:#486b2d; stroke:none;" d="M182 151L183 152L182 151z"/>
<path style="fill:#a8b69d; stroke:none;" d="M202 151L203 152L202 151M66 152L67 153L66 152z"/>
<path style="fill:#486b2d; stroke:none;" d="M200 152L201 153L200 152z"/>
<path style="fill:#a8b69d; stroke:none;" d="M205.333 152.667L205.667 153.333L205.333 152.667M207.333 152.667L207.667 153.333L207.333 152.667M67 153L68 154L67 153z"/>
<path style="fill:#486b2d; stroke:none;" d="M105.333 153.667L105.667 154.333L105.333 153.667M183 153L184 154L183 153z"/>
<path style="fill:#a8b69d; stroke:none;" d="M201 153L202 154L201 153M39.3333 154.667L39.6667 155.333L39.3333 154.667M41.3333 154.667L41.6667 155.333L41.3333 154.667M68 154L69 155L68 154M100 154L101 155L100 154z"/>
<path style="fill:#486b2d; stroke:none;" d="M184.333 154.667L184.667 155.333L184.333 154.667z"/>
<path style="fill:#a8b69d; stroke:none;" d="M200.333 154.667L200.667 155.333L200.333 154.667M206.333 154.667L206.667 155.333L206.333 154.667M70 155L71 156L70 155z"/>
<path style="fill:#486b2d; stroke:none;" d="M71 155L72 156L71 155M99 155L97 158L99 155z"/>
<path style="fill:#a8b69d; stroke:none;" d="M104.333 155.667L104.667 156.333L104.333 155.667z"/>
<path style="fill:#486b2d; stroke:none;" d="M198.333 155.667L198.667 156.333L198.333 155.667z"/>
<path style="fill:#a8b69d; stroke:none;" d="M204 155L205 156L204 155M40.3333 156.667L40.6667 157.333L40.3333 156.667z"/>
<path style="fill:#578d31; stroke:none;" d="M72 156L73 157L72 156z"/>
<path style="fill:#a8b69d; stroke:none;" d="M99 156L100 157L99 156M199.333 156.667L199.667 157.333L199.333 156.667M42 157L43 158L42 157M73 157L74 158L73 157z"/>
<path style="fill:#486b2d; stroke:none;" d="M74 157L75 158L74 157z"/>
<path style="fill:#a8b69d; stroke:none;" d="M98 157L99 158L98 157z"/>
<path style="fill:#486b2d; stroke:none;" d="M104.333 157.667L104.667 158.333L104.333 157.667M185 157L186 158L185 157z"/>
<path style="fill:#a8b69d; stroke:none;" d="M203.333 157.667L203.667 158.333L203.333 157.667M205.333 157.667L205.667 158.333L205.333 157.667M75 158L76 159L75 158z"/>
<path style="fill:#578d31; stroke:none;" d="M76 158L77 159L76 158z"/>
<path style="fill:#486b2d; stroke:none;" d="M95 158L96 159L95 158z"/>
<path style="fill:#a8b69d; stroke:none;" d="M96 158L97 159L96 158z"/>
<path style="fill:#486b2d; stroke:none;" d="M197 158L198 159L197 158z"/>
<path style="fill:#a8b69d; stroke:none;" d="M198.333 158.667L198.667 159.333L198.333 158.667M41 159L42 160L41 159M43 159L44 160L43 159M78 159L79 160L78 159z"/>
<path style="fill:#486b2d; stroke:none;" d="M79 159L80 160L79 159z"/>
<path style="fill:#578d31; stroke:none;" d="M93 159L94 160L93 159z"/>
<path style="fill:#a8b69d; stroke:none;" d="M94 159L95 160L94 159z"/>
<path style="fill:#486b2d; stroke:none;" d="M185 159L186 160L185 159z"/>
<path style="fill:#a8b69d; stroke:none;" d="M204.333 159.667L204.667 160.333L204.333 159.667M81 160L82 161L81 160z"/>
<path style="fill:#578d31; stroke:none;" d="M82 160L83 161L82 160z"/>
<path style="fill:#486b2d; stroke:none;" d="M83 160L83 161L87 161L83 160M88 160L88 161L91 161L88 160z"/>
<path style="fill:#a8b69d; stroke:none;" d="M91.6667 160.333L92.3333 160.667L91.6667 160.333M103 160L104 161L103 160z"/>
<path style="fill:#486b2d; stroke:none;" d="M196 160L197 161L196 160z"/>
<path style="fill:#a8b69d; stroke:none;" d="M197.333 160.667L197.667 161.333L197.333 160.667M202 160L203 161L202 160M42 161L43 162L42 161M44 161L45 162L44 161M87 161L88 162L87 161z"/>
<path style="fill:#578d31; stroke:none;" d="M103 161L104 162L103 161z"/>
<path style="fill:#486b2d; stroke:none;" d="M184 161L184 164L185 164L184 161z"/>
<path style="fill:#a8b69d; stroke:none;" d="M203.333 161.667L203.667 162.333L203.333 161.667z"/>
<path style="fill:#486b2d; stroke:none;" d="M103.333 162.667L103.667 163.333L103.333 162.667z"/>
<path style="fill:#a8b69d; stroke:none;" d="M196.333 162.667L196.667 163.333L196.333 162.667M201 162L202 163L201 162M43 163L44 164L43 163M45 163L46 164L45 163M200.333 163.667L200.667 164.333L200.333 163.667M202.333 163.667L202.667 164.333L202.333 163.667z"/>
<path style="fill:#486b2d; stroke:none;" d="M183 164L182 169L183 164z"/>
<path style="fill:#a8b69d; stroke:none;" d="M195 164L196 165L195 164M44 165L45 166L44 165M46 165L47 166L46 165M102 165L102 168L103 168L102 165M199 165L200 166L199 165M201 165L202 166L201 165M47.3333 166.667L47.6667 167.333L47.3333 166.667M194 166L195 167L194 166M45 167L46 168L45 167z"/>
<path style="fill:#486b2d; stroke:none;" d="M192 167L193 168L192 167z"/>
<path style="fill:#a8b69d; stroke:none;" d="M198 167L199 168L198 167M200 167L201 168L200 167M46.3333 168.667L46.6667 169.333L46.3333 168.667M48 168L49 169L48 168z"/>
<path style="fill:#486b2d; stroke:none;" d="M102 168L102 172L103 172L102 168M180 168L181 169L180 168z"/>
<path style="fill:#a8b69d; stroke:none;" d="M193 168L194 169L193 168z"/>
<path style="fill:#486b2d; stroke:none;" d="M179 169L178 171L179 169M191 169L190 171L191 169z"/>
<path style="fill:#a8b69d; stroke:none;" d="M195 169L188 181C191.573 178.368 197.233 173.701 195 169M197 169L198 170L197 169M199 169L200 170L199 169M47 170L48 171L47 170M49 170L50 171L49 170M179.333 170.667L179.667 171.333L179.333 170.667z"/>
<path style="fill:#486b2d; stroke:none;" d="M181 170L182 171L181 170z"/>
<path style="fill:#a8b69d; stroke:none;" d="M192 170L193 171L192 170M198 170L199 171L198 170M48.3333 171.667L48.6667 172.333L48.3333 171.667M50 171L51 172L50 171M177 171L178 172L177 171M191 171L192 172L191 171z"/>
<path style="fill:#486b2d; stroke:none;" d="M174 172L175 173L174 172z"/>
<path style="fill:#a8b69d; stroke:none;" d="M175.667 172.333L176.333 172.667L175.667 172.333z"/>
<path style="fill:#486b2d; stroke:none;" d="M180 172L181 173L180 172z"/>
<path style="fill:#a8b69d; stroke:none;" d="M190 172L191 173L190 172z"/>
<path style="fill:#578d31; stroke:none;" d="M193 172L194 173L193 172z"/>
<path style="fill:#a8b69d; stroke:none;" d="M197 172L198 173L197 172M49 173L50 174L49 173M51 173L52 174L51 173z"/>
<path style="fill:#486b2d; stroke:none;" d="M102 173L103 174L102 173M172 173L173 174L172 173z"/>
<path style="fill:#a8b69d; stroke:none;" d="M173 173L174 174L173 173M178 173L179 174L178 173M196 173L197 174L196 173M50 174L51 175L50 174M52 174L53 175L52 174z"/>
<path style="fill:#486b2d; stroke:none;" d="M168.667 174.333L169.333 174.667L168.667 174.333z"/>
<path style="fill:#a8b69d; stroke:none;" d="M170.667 174.333L171.333 174.667L170.667 174.333M53 175L54 176L53 175z"/>
<path style="fill:#486b2d; stroke:none;" d="M102 175L103 176L102 175M158 175L158 176L165 176L158 175z"/>
<path style="fill:#578d31; stroke:none;" d="M165 175L166 176L165 175z"/>
<path style="fill:#a8b69d; stroke:none;" d="M166 175L166 176L169 176L166 175M177 175L178 176L177 175M188 175L189 176L188 175z"/>
<path style="fill:#578d31; stroke:none;" d="M191 175L190 177L191 175z"/>
<path style="fill:#a8b69d; stroke:none;" d="M195 175L196 176L195 175M51 176L52 177L51 176z"/>
<path style="fill:#486b2d; stroke:none;" d="M154 176L155 177L154 176z"/>
<path style="fill:#578d31; stroke:none;" d="M155 176L156 177L155 176z"/>
<path style="fill:#a8b69d; stroke:none;" d="M156 176L156 177L159 177L156 176M161 176L162 177L161 176M187 176L188 177L187 176M194 176L195 177L194 176M52 177L53 178L52 177M54 177L55 178L54 177z"/>
<path style="fill:#486b2d; stroke:none;" d="M152 177L153 178L152 177z"/>
<path style="fill:#a8b69d; stroke:none;" d="M153 177L154 178L153 177M176.333 177.667L176.667 178.333L176.333 177.667M186 177L187 178L186 177M193 177L194 178L193 177M53 178L54 179L53 178M55 178L56 179L55 178M101 178L102 179L101 178z"/>
<path style="fill:#486b2d; stroke:none;" d="M102 178L102 182L103 182L102 178M150 178L151 179L150 178z"/>
<path style="fill:#a8b69d; stroke:none;" d="M151 178L152 179L151 178M185 178L186 179L185 178M54 179L55 180L54 179M56 179L57 180L56 179z"/>
<path style="fill:#486b2d; stroke:none;" d="M149 179L150 180L149 179z"/>
<path style="fill:#a8b69d; stroke:none;" d="M57 180L58 181L57 180z"/>
<path style="fill:#486b2d; stroke:none;" d="M147 180L146 182L147 180z"/>
<path style="fill:#a8b69d; stroke:none;" d="M148 180L149 181L148 180M175 180L176 181L175 180M191 180L192 181L191 180M58 181L59 182L58 181M147 181L148 182L147 181M183 181L184 182L183 181M190 181L191 182L190 181M56 182L57 183L56 182M59 182L60 183L59 182z"/>
<path style="fill:#578d31; stroke:none;" d="M102 182L103 183L102 182z"/>
<path style="fill:#486b2d; stroke:none;" d="M145 182L146 183L145 182z"/>
<path style="fill:#a8b69d; stroke:none;" d="M174.333 182.667L174.667 183.333L174.333 182.667M182 182L183 183L182 182z"/>
<path style="fill:#486b2d; stroke:none;" d="M188 182L187 184L188 182z"/>
<path style="fill:#a8b69d; stroke:none;" d="M189 182L190 183L189 182M57 183L58 184L57 183M60 183L61 184L60 183M102 183L102 186L103 186L102 183z"/>
<path style="fill:#486b2d; stroke:none;" d="M143 183L142 185L143 183z"/>
<path style="fill:#a8b69d; stroke:none;" d="M144 183L145 184L144 183M181 183L182 184L181 183M188 183L189 184L188 183M58 184L59 185L58 184M61 184L62 185L61 184M143 184L144 185L143 184M173 184L172 189L173 189L173 184M180 184L181 185L180 184M187 184L188 185L187 184M59 185L60 186L59 185M62 185L63 186L62 185z"/>
<path style="fill:#486b2d; stroke:none;" d="M103 185L104 186L103 185M141 185L140 187L141 185z"/>
<path style="fill:#a8b69d; stroke:none;" d="M179 185L180 186L179 185M186 185L187 186L186 185M60 186L61 187L60 186M63 186L64 187L63 186M141 186L142 187L141 186z"/>
<path style="fill:#486b2d; stroke:none;" d="M174.667 186.333L175.333 186.667L174.667 186.333z"/>
<path style="fill:#a8b69d; stroke:none;" d="M177 186L178 187L177 186z"/>
<path style="fill:#486b2d; stroke:none;" d="M184 186L183 188L184 186z"/>
<path style="fill:#a8b69d; stroke:none;" d="M185 186L186 187L185 186M61 187L62 188L61 187M64 187L65 188L64 187z"/>
<path style="fill:#486b2d; stroke:none;" d="M103 187L104 188L103 187z"/>
<path style="fill:#578d31; stroke:none;" d="M139 187L140 188L139 187z"/>
<path style="fill:#486b2d; stroke:none;" d="M173 187L174 188L173 187z"/>
<path style="fill:#a8b69d; stroke:none;" d="M176 187L177 188L176 187M184 187L185 188L184 187M62 188L63 189L62 188M65 188L66 189L65 188M103.333 188.667L103.667 189.333L103.333 188.667z"/>
<path style="fill:#486b2d; stroke:none;" d="M137 188L136 190L137 188z"/>
<path style="fill:#a8b69d; stroke:none;" d="M138 188L139 189L138 188M174 188L175 189L174 188M180 188L181 189L180 188M183 188L184 189L183 188M66 189L67 190L66 189z"/>
<path style="fill:#486b2d; stroke:none;" d="M104 189L105 190L104 189z"/>
<path style="fill:#a8b69d; stroke:none;" d="M137 189L138 190L137 189M179 189L180 190L179 189M182 189L183 190L182 189M65 190L66 191L65 190M67 190L68 191L67 190z"/>
<path style="fill:#578d31; stroke:none;" d="M104 190L105 191L104 190z"/>
<path style="fill:#486b2d; stroke:none;" d="M134 190L135 191L134 190z"/>
<path style="fill:#a8b69d; stroke:none;" d="M135 190L136 191L135 190M178 190L179 191L178 190M181 190L182 191L181 190M66 191L67 192L66 191M69 191L70 192L69 191M104 191L106 193L104 191z"/>
<path style="fill:#486b2d; stroke:none;" d="M105 191L106 192L105 191M133 191L134 192L133 191z"/>
<path style="fill:#a8b69d; stroke:none;" d="M177 191L178 192L177 191M67 192L68 193L67 192M70 192L71 193L70 192z"/>
<path style="fill:#486b2d; stroke:none;" d="M131 192L132 193L131 192z"/>
<path style="fill:#a8b69d; stroke:none;" d="M132 192L133 193L132 192M175 192L176 193L175 192M178 192L179 193L178 192M68 193L69 194L68 193M71 193L72 194L71 193M106 193L109 196L106 193z"/>
<path style="fill:#486b2d; stroke:none;" d="M107 193L108 194L107 193z"/>
<path style="fill:#578d31; stroke:none;" d="M129 193L130 194L129 193z"/>
<path style="fill:#a8b69d; stroke:none;" d="M130 193L131 194L130 193M174 193L175 194L174 193M177 193L178 194L177 193M70 194L71 195L70 194M73 194L74 195L73 194z"/>
<path style="fill:#486b2d; stroke:none;" d="M108 194L109 195L108 194z"/>
<path style="fill:#578d31; stroke:none;" d="M127 194L128 195L127 194z"/>
<path style="fill:#a8b69d; stroke:none;" d="M128 194L129 195L128 194M173 194L174 195L173 194M176 194L177 195L176 194M71 195L72 196L71 195M74 195L75 196L74 195z"/>
<path style="fill:#578d31; stroke:none;" d="M109 195L110 196L109 195z"/>
<path style="fill:#486b2d; stroke:none;" d="M123.667 195.333L124.333 195.667L123.667 195.333z"/>
<path style="fill:#a8b69d; stroke:none;" d="M125.667 195.333L126.333 195.667L125.667 195.333M171 195L172 196L171 195M174 195L175 196L174 195M72 196L73 197L72 196M76 196L77 197L76 196M110.667 196.333L111.333 196.667L110.667 196.333z"/>
<path style="fill:#486b2d; stroke:none;" d="M112.667 196.333L113.333 196.667L112.667 196.333M121 196L115 197L115 198L122 197L121 196z"/>
<path style="fill:#578d31; stroke:none;" d="M122 196L123 197L122 196z"/>
<path style="fill:#a8b69d; stroke:none;" d="M169.667 196.333L170.333 196.667L169.667 196.333M173 196L174 197L173 196M74 197L75 198L74 197M77 197L78 198L77 197M114 197L114 201L115 201L114 197M121 197L122 198L121 197M168 197L169 198L168 197M171 197L172 198L171 197M79 198L80 199L79 198z"/>
<path style="fill:#578d31; stroke:none;" d="M115 198C115.475 202.25 116.733 204.804 121 206L120 198L115 198z"/>
<path style="fill:#a8b69d; stroke:none;" d="M120 198L120 201L121 201L120 198M166 198L167 199L166 198M170 198L171 199L170 198M77 199L78 200L77 199M81 199L82 200L81 199M164 199L165 200L164 199M168 199L169 200L168 199M79 200L80 201L79 200M83 200L84 201L83 200M162 200L163 201L162 200M166 200L167 201L166 200M81 201L82 202L81 201M85 201L86 202L85 201M160.667 201.333L161.333 201.667L160.667 201.333M164 201L165 202L164 201M83 202L84 203L83 202M87 202L88 203L87 202M115.333 202.667L115.667 203.333L115.333 202.667M119.333 202.667L119.667 203.333L119.333 202.667M158 202L159 203L158 202M162.667 202.333L163.333 202.667L162.667 202.333M85 203L86 204L85 203M89.6667 203.333L90.3333 203.667L89.6667 203.333M156 203L157 204L156 203M160.667 203.333L161.333 203.667L160.667 203.333M87 204L88 205L87 204M91 204L91 205L94 205L91 204M116 204L117 205L116 204z"/>
<path style="fill:#486b2d; stroke:none;" d="M118 204L119 205L118 204z"/>
<path style="fill:#a8b69d; stroke:none;" d="M120 204L121 205L120 204M153.667 204.333L154.333 204.667L153.667 204.333M158 204L159 205L158 204M89.6667 205.333L90.3333 205.667L89.6667 205.333M94 205L94 206L97 206L94 205M117 205L118 206L117 205z"/>
<path style="fill:#486b2d; stroke:none;" d="M119 205L120 206L119 205z"/>
<path style="fill:#a8b69d; stroke:none;" d="M150.667 205.333L151.333 205.667L150.667 205.333M156 205L157 206L156 205M92 206L93 207L92 206M97 206L97 207L100 207L97 206M118 206L118 207L121 207L118 206M147.667 206.333L148.333 206.667L147.667 206.333M153 206L154 207L153 206M95 207L96 208L95 207M101.667 207.333L102.333 207.667L101.667 207.333M143 207L143 208L146 208L143 207M150 207L151 208L150 207M98.6667 208.333L99.3333 208.667L98.6667 208.333M105 208L105 209L108 209L105 208M138 208L138 209L141 209L138 208M146.667 208.333L147.333 208.667L146.667 208.333M102.667 209.333L103.333 209.667L102.667 209.333M112 209L112 210L116 210L112 209M130 209L130 210L135 210L130 209M142.667 209.333L143.333 209.667L142.667 209.333M106 210L106 211L110 211L106 210M136 210L136 211L140 211L136 210M112 211L112 212L134 212L112 211z"/>
</svg>
