<?xml version="1.0" standalone="no"?>
<!DOCTYPE svg PUBLIC "-//W3C//DTD SVG 20010904//EN"
 "http://www.w3.org/TR/2001/REC-SVG-20010904/DTD/svg10.dtd">
<svg version="1.0" xmlns="http://www.w3.org/2000/svg"
 width="245.000000pt" height="245.000000pt" viewBox="0 0 245.000000 245.000000"
 preserveAspectRatio="xMidYMid meet">
<metadata>
Created by potrace 1.14, written by Peter Selinger 2001-2017
</metadata>
<g transform="translate(0.000000,245.000000) scale(0.100000,-0.100000)"
fill="#000000" stroke="none">
<path d="M1049 2006 c-289 -61 -544 -277 -651 -553 -166 -428 31 -922 447
-1119 144 -68 195 -79 385 -79 142 0 176 3 243 23 158 45 300 133 413 255 156
168 234 367 234 597 0 131 -18 233 -60 333 -106 255 -294 428 -560 518 -86 29
-108 32 -240 35 -97 2 -167 -1 -211 -10z m367 -15 c171 -35 330 -127 461 -264
88 -93 150 -197 194 -325 33 -95 34 -100 34 -267 0 -166 -1 -172 -33 -265 -53
-152 -103 -231 -222 -350 -72 -72 -126 -117 -173 -142 -172 -94 -297 -123
-487 -115 -229 10 -404 84 -569 241 -251 240 -337 603 -218 928 86 237 288
439 525 525 150 55 326 67 488 34z"/>
<path d="M1100 1918 c-47 -13 -59 -25 -52 -51 4 -18 3 -20 -9 -11 -22 17 -49
24 -49 14 0 -6 8 -10 17 -10 21 0 6 -16 -22 -23 -19 -5 -19 -5 3 -12 27 -9 29
-25 3 -25 -25 0 -37 -18 -17 -26 14 -5 14 -8 -1 -30 -25 -39 -42 -31 -36 17 6
39 5 41 -13 31 -14 -8 -26 -6 -46 6 -26 15 -29 15 -45 -1 -16 -15 -16 -18 2
-37 23 -25 16 -34 -17 -21 -14 5 -44 7 -66 4 -24 -3 -55 0 -72 7 -30 12 -33
11 -71 -26 -21 -21 -39 -43 -39 -48 0 -6 -13 -24 -29 -41 l-30 -30 19 -25 19
-25 16 23 c22 30 43 28 57 -5 7 -16 22 -44 34 -63 20 -34 21 -41 11 -120 -10
-85 -10 -85 22 -149 18 -34 30 -65 28 -67 -2 -3 -14 -7 -26 -9 -46 -9 -61 -17
-85 -46 -36 -42 -42 -87 -20 -155 35 -113 170 -214 285 -214 90 0 159 69 144
147 -6 31 6 45 20 23 3 -5 15 -10 25 -10 17 0 18 -3 9 -27 -21 -54 -49 -209
-49 -270 0 -101 16 -158 56 -193 19 -16 44 -30 54 -30 14 0 20 -7 20 -23 0
-29 27 -67 47 -67 11 0 13 3 5 13 -6 6 -8 24 -5 40 5 23 18 33 80 62 67 31
124 68 178 118 45 41 86 58 166 68 46 6 104 20 132 33 26 13 46 19 43 12 -25
-57 -66 -169 -63 -172 9 -10 87 58 138 122 55 68 170 274 183 326 4 17 2 28
-6 30 -8 3 -6 13 9 31 71 91 43 343 -59 540 -52 100 -161 240 -166 215 -4 -23
-7 -22 -49 3 -27 17 -37 19 -48 9 -12 -10 -12 -16 -2 -34 6 -11 12 -43 12 -70
0 -38 4 -51 20 -60 11 -6 21 -11 22 -11 0 0 4 -17 8 -37 6 -32 5 -38 -10 -38
-10 0 -35 19 -57 42 -37 40 -42 41 -39 7 1 -11 -13 -22 -37 -32 -95 -38 -149
-171 -122 -298 16 -73 59 -136 112 -162 27 -13 35 -22 31 -37 -5 -17 -8 -17
-51 9 -121 70 -216 101 -305 97 -94 -3 -154 -45 -200 -138 -16 -32 -32 -60
-36 -62 -15 -10 -51 25 -51 50 0 19 -5 24 -25 24 -24 0 -25 2 -19 35 6 36 -9
48 -32 25 -7 -7 -21 1 -42 23 -29 30 -32 37 -22 61 10 26 13 28 48 21 20 -5
52 -9 70 -9 18 -1 37 -8 42 -16 8 -12 10 -11 10 5 0 11 10 27 21 35 26 18 49
69 49 108 0 20 9 35 31 51 l31 23 26 -25 c35 -33 73 -47 129 -47 38 0 50 5 78
33 67 67 81 207 33 325 -12 32 -12 35 13 55 14 12 34 27 44 32 16 10 16 13 1
50 -9 22 -25 49 -35 60 -10 11 -22 30 -26 43 -3 12 -14 22 -25 22 -10 0 -22 5
-25 10 -9 14 -108 13 -123 -2 -9 -9 -21 -9 -50 0 -46 14 -84 14 -132 0z m100
-33 c0 -8 -7 -15 -15 -15 -28 0 -3 -29 31 -36 l35 -6 -28 -15 c-15 -8 -36 -21
-45 -30 -15 -13 -19 -13 -40 1 -27 19 -58 20 -82 3 -16 -11 -17 -17 -6 -36 16
-30 5 -39 -20 -16 -38 34 -16 75 41 75 12 0 43 20 70 45 53 49 59 52 59 30z
m-71 -157 c5 -13 5 -31 -1 -41 -5 -9 -12 -46 -15 -82 -3 -36 -10 -68 -14 -71
-5 -3 -9 -16 -9 -30 0 -30 -18 -32 -25 -1 -3 12 -28 37 -56 55 -27 17 -49 36
-49 41 0 4 9 20 20 34 18 22 27 25 67 23 39 -2 43 -1 28 10 -16 12 -16 15 5
48 25 42 37 45 49 14z m725 -152 c-3 -13 -1 -27 5 -30 19 -12 12 -26 -14 -26
-26 0 -33 14 -15 25 8 5 7 11 0 20 -14 17 -5 35 16 35 10 0 13 -7 8 -24z m149
-204 c25 -22 21 -34 -10 -30 -22 2 -29 9 -31 32 -4 30 4 29 41 -2z m-103 -64
c0 -17 3 -18 15 -8 12 10 16 9 22 -6 6 -16 8 -14 14 11 l6 30 12 -29 c6 -16
18 -34 25 -40 17 -14 30 -66 17 -66 -6 0 -22 5 -36 12 -22 10 -28 9 -35 -3 -8
-12 -12 -11 -29 6 -21 22 -42 133 -22 121 6 -4 11 -16 11 -28z m-50 -458 c0
-28 -15 -25 -28 5 -16 35 -15 37 8 25 11 -6 20 -20 20 -30z"/>
<path d="M1596 1872 c-2 -4 11 -17 30 -30 39 -25 45 -16 11 16 -25 24 -33 26
-41 14z"/>
<path d="M887 1843 c-15 -15 -5 -23 28 -23 39 0 47 14 13 24 -29 7 -33 7 -41
-1z"/>
<path d="M1547 1693 c-9 -8 12 -33 29 -33 20 0 28 21 13 31 -17 10 -33 11 -42
2z"/>
<path d="M1079 1070 c18 -11 36 -19 39 -15 9 9 -11 23 -43 30 l-30 7 34 -22z"/>
</g>
</svg>
